<?xml version="1.0" standalone="no"?>
<!DOCTYPE svg PUBLIC "-//W3C//DTD SVG 20010904//EN"
 "http://www.w3.org/TR/2001/REC-SVG-20010904/DTD/svg10.dtd">
<svg version="1.0" xmlns="http://www.w3.org/2000/svg"
 width="1040.000000pt" height="1040.000000pt" viewBox="0 0 1040.000000 1040.000000"
 preserveAspectRatio="xMidYMid meet">
<metadata>
Created by potrace 1.14, written by Peter Selinger 2001-2017
</metadata>
<g transform="translate(0.000000,1040.000000) scale(0.100000,-0.100000)"
fill="#000000" stroke="none">
<path d="M90 9413 c-19 -15 -47 -40 -62 -54 l-28 -27 0 -3374 0 -3373 46 -40
c26 -22 54 -44 63 -49 9 -5 18 -12 21 -15 7 -8 87 -46 125 -59 30 -11 84 -23
120 -28 11 -1 797 -3 1747 -3 l1727 -1 -15 -37 c-8 -21 -19 -47 -24 -58 -12
-24 -33 -78 -34 -85 -1 -3 -14 -37 -29 -75 -37 -90 -39 -96 -74 -182 l-28 -73
-470 0 -470 0 -44 -23 c-31 -16 -52 -36 -68 -66 -22 -42 -23 -55 -23 -232 l0
-187 -517 -1 c-285 0 -522 -1 -528 -2 -5 -1 -14 -2 -20 -3 -5 0 -21 -7 -34
-15 -126 -71 -120 -239 11 -307 40 -21 7222 -21 7271 0 30 13 96 66 81 66 -3
0 -1 6 5 14 22 27 23 106 0 152 -19 40 -72 84 -109 91 -8 2 -250 4 -537 4
l-523 1 -1 167 c-1 91 -1 173 0 182 2 21 -23 80 -47 106 -45 52 -56 53 -560
53 l-468 0 -67 167 c-36 93 -72 182 -78 198 -7 17 -12 33 -11 38 1 4 -2 7 -8
7 -6 0 -9 3 -8 8 1 7 -4 23 -23 70 l-9 22 1728 1 c950 1 1730 1 1734 0 32 -5
227 63 263 91 15 12 56 47 85 72 75 64 137 169 169 285 20 71 20 112 18 3134
-2 1684 -6 3073 -10 3086 -30 105 -38 125 -83 196 -37 58 -93 119 -146 158
l-37 27 -4993 0 -4993 0 -35 -27z m9780 -234 c68 -24 119 -67 151 -129 l24
-45 3 -2627 2 -2628 -4930 0 -4930 0 2 2633 3 2632 22 37 c41 68 87 106 158
129 24 8 9473 6 9495 -2z m180 -6007 c-1 -227 -2 -241 -24 -288 -29 -63 -75
-107 -137 -133 l-50 -20 -4722 0 -4722 0 -61 29 c-63 31 -110 83 -132 149 -8
22 -12 117 -12 267 l0 234 4930 0 4931 0 -1 -238z m-3951 -970 c41 -103 82
-205 91 -227 9 -22 22 -52 28 -67 l11 -28 -1084 0 c-596 0 -1088 0 -1092 -1
-21 -3 -33 2 -33 15 0 11 73 197 142 365 6 14 12 28 12 31 1 3 10 26 20 53
l19 47 906 0 906 0 74 -188z m1231 -746 l0 -84 -2210 0 -2210 0 0 84 0 84
2210 0 2210 0 0 -84z"/>
<path d="M6295 7490 c-11 -4 -23 -6 -27 -3 -9 5 -56 -24 -84 -51 -17 -18 -35
-48 -38 -66 -1 -3 -4 -10 -8 -15 -4 -6 -3 -17 1 -24 4 -7 6 -22 4 -34 -5 -24
26 -74 93 -153 23 -27 101 -121 174 -209 72 -88 138 -165 146 -171 8 -6 14
-14 14 -18 0 -6 88 -115 110 -136 3 -3 25 -30 50 -60 25 -30 47 -57 50 -60 3
-3 25 -30 50 -60 25 -30 57 -68 72 -85 27 -29 36 -60 21 -67 -5 -1 -51 -55
-103 -118 -52 -63 -97 -117 -100 -120 -3 -3 -25 -30 -50 -60 -24 -30 -51 -62
-60 -71 -8 -9 -27 -31 -42 -50 -14 -19 -36 -45 -48 -59 -12 -14 -36 -42 -53
-64 -35 -43 -95 -114 -136 -162 -14 -17 -39 -48 -56 -69 -16 -20 -45 -53 -63
-73 -70 -78 -87 -146 -57 -218 17 -42 31 -57 77 -82 68 -38 170 -14 217 52 8
10 33 40 55 65 23 26 56 66 74 89 19 22 43 51 54 64 30 35 49 59 98 118 25 30
47 57 50 60 3 3 25 30 50 60 25 30 47 57 50 60 3 3 21 25 41 50 20 25 45 55
55 67 11 12 35 40 54 63 19 23 42 50 52 61 9 11 31 38 48 59 17 21 40 48 50
60 10 12 33 39 52 62 18 23 38 46 43 52 65 69 70 171 13 237 -13 15 -34 41
-48 59 -13 17 -33 42 -45 54 -23 27 -36 42 -129 156 -39 47 -72 87 -76 90 -3
3 -37 43 -75 90 -38 47 -72 87 -75 90 -3 3 -59 70 -125 150 -66 80 -122 147
-125 150 -3 3 -27 32 -54 65 -71 86 -78 93 -109 125 -32 33 -104 60 -132 50z"/>
<path d="M3855 7473 c-32 -17 -74 -58 -115 -113 -14 -18 -31 -39 -38 -46 -7
-8 -83 -98 -168 -201 -86 -103 -173 -208 -194 -233 -20 -25 -110 -133 -199
-240 -89 -107 -171 -205 -181 -217 -74 -87 -64 -178 32 -284 12 -15 39 -45 58
-68 19 -23 43 -52 53 -64 11 -12 33 -39 50 -61 18 -21 37 -43 42 -50 6 -6 53
-63 105 -126 52 -63 99 -120 105 -126 5 -6 26 -30 45 -53 19 -24 40 -48 45
-54 6 -7 30 -37 55 -67 25 -30 47 -57 50 -60 3 -3 37 -43 75 -90 39 -46 85
-100 102 -120 18 -19 33 -38 33 -41 0 -4 21 -17 46 -28 50 -24 124 -25 146 -3
7 7 16 12 21 12 17 0 57 54 67 91 15 54 1 129 -30 159 -3 3 -48 57 -100 120
-52 63 -99 120 -105 126 -5 6 -26 30 -45 54 -19 24 -40 48 -45 54 -6 6 -53 63
-105 126 -52 63 -97 117 -100 120 -3 3 -36 43 -74 90 -38 47 -74 90 -80 95 -6
6 -29 33 -51 60 -21 28 -43 53 -47 56 -5 3 4 21 19 41 40 49 104 127 128 154
11 12 36 42 55 65 19 24 60 73 90 109 30 36 69 83 85 104 17 21 43 52 59 69
15 18 40 47 55 66 14 19 35 44 46 56 11 12 27 30 35 41 22 28 163 198 170 204
21 18 43 69 46 106 7 73 -38 148 -104 175 -35 14 -103 10 -137 -8z"/>
<path d="M5703 7474 c-27 -14 -80 -74 -118 -135 -6 -9 -19 -29 -29 -45 -11
-16 -73 -110 -137 -209 -201 -307 -268 -409 -279 -425 -6 -8 -53 -80 -104
-159 -52 -79 -99 -151 -105 -160 -6 -9 -24 -36 -40 -61 -16 -25 -116 -178
-223 -340 -107 -162 -203 -310 -213 -327 -11 -18 -23 -33 -27 -33 -4 0 -8 -5
-8 -11 0 -7 -16 -34 -35 -60 -19 -27 -35 -53 -35 -58 0 -5 -4 -11 -8 -13 -5
-1 -23 -28 -40 -59 -40 -71 -42 -125 -7 -184 32 -55 99 -89 161 -81 78 9 98
29 212 206 45 69 85 130 89 135 5 6 28 42 52 80 24 39 48 72 53 73 4 2 6 8 2
13 -3 5 0 9 5 9 6 0 11 6 11 14 0 8 3 16 8 18 8 4 52 65 52 73 0 3 5 11 11 18
9 10 259 389 259 393 0 0 47 72 105 159 58 87 105 158 105 159 0 2 229 351
279 426 58 86 81 123 81 130 0 5 3 10 8 12 13 5 138 202 149 233 48 142 -100
275 -234 209z"/>
</g>
</svg>
