<svg width="74.000000" height="74.000000" viewBox="0 0 74 74" fill="none" xmlns="http://www.w3.org/2000/svg">
    <defs>
        <clipPath id="clip1_346">
            <rect id="Icons/game-development" width="74.000000" height="74.000000" fill="white" fill-opacity="0"/>
        </clipPath>
    </defs>
    <rect id="Icons/game-development" width="74.000000" height="74.000000" fill="#FFFFFF" fill-opacity="0"/>
    <g id="webDevelopment">
        <defs>
            <clipPath id="clip1_299">
                <rect id="Icons/coding" width="68" height="68" fill="currentColor" fill-opacity="0"/>
            </clipPath>
        </defs>
        <rect id="Icons/coding" width="68" height="68" fill="#FFFFFF" fill-opacity="0"/>
        <rect id="Icons/coding" width="68" height="68" fill="#FFFFFF" fill-opacity="0"/>
        <rect id="Icons/coding" width="68" height="68" fill="#FFFFFF" fill-opacity="0"/>
        <rect id="Icons/coding" width="68" height="68" fill="#FFFFFF" fill-opacity="0"/>
        <rect id="Icons/coding" width="68" height="68" fill="#FFFFFF" fill-opacity="0"/>
        <g clip-path="url(#clip1_299)">
            <path id="Vector"
                  d="M63.2188 7.4375L4.78125 7.4375C3.79529 7.43848 2.8501 7.83057 2.15295 8.52783C1.45569 9.2251 1.0636 10.1704 1.0625 11.1562L1.0625 48.3438C1.0636 49.3296 1.45569 50.2749 2.15295 50.9722C2.8501 51.6694 3.79529 52.0615 4.78125 52.0625L26.0552 52.0625L24.7802 55.25L19.125 55.25C18.8433 55.25 18.573 55.3618 18.3737 55.561C18.1744 55.7603 18.0625 56.0308 18.0625 56.3125L18.0625 58.4375L11.6875 58.4375C11.4058 58.4375 11.1355 58.5493 10.9362 58.7485C10.7369 58.9478 10.625 59.2183 10.625 59.5C10.625 59.7817 10.7369 60.0522 10.9362 60.2515C11.1355 60.4507 11.4058 60.5625 11.6875 60.5625L56.3125 60.5625C56.5942 60.5625 56.8645 60.4507 57.0638 60.2515C57.2631 60.0522 57.375 59.7817 57.375 59.5C57.375 59.2183 57.2631 58.9478 57.0638 58.7485C56.8645 58.5493 56.5942 58.4375 56.3125 58.4375L49.9375 58.4375L49.9375 56.3125C49.9375 56.0308 49.8256 55.7603 49.6263 55.561C49.427 55.3618 49.1567 55.25 48.875 55.25L43.2198 55.25L41.9448 52.0625L63.2188 52.0625C64.2047 52.0615 65.1499 51.6694 65.847 50.9722C66.5443 50.2749 66.9364 49.3296 66.9375 48.3438L66.9375 11.1562C66.9364 10.1704 66.5443 9.2251 65.847 8.52783C65.1499 7.83057 64.2047 7.43848 63.2188 7.4375ZM47.8125 57.375L47.8125 58.4375L20.1875 58.4375L20.1875 57.375L47.8125 57.375ZM27.0698 55.25L28.3448 52.0625L39.6552 52.0625L40.9302 55.25L27.0698 55.25ZM64.8125 48.3438C64.8121 48.7661 64.6442 49.1714 64.3453 49.4702C64.0465 49.769 63.6414 49.937 63.2188 49.9375L4.78125 49.9375C4.35864 49.937 3.95349 49.769 3.65466 49.4702C3.35583 49.1714 3.18787 48.7661 3.1875 48.3438L3.1875 45.6875L64.8125 45.6875L64.8125 48.3438ZM64.8125 43.5625L3.1875 43.5625L3.1875 11.1562C3.18787 10.7339 3.35583 10.3286 3.65466 10.0298C3.95349 9.73096 4.35864 9.56299 4.78125 9.5625L63.2188 9.5625C63.6414 9.56299 64.0465 9.73096 64.3453 10.0298C64.6442 10.3286 64.8121 10.7339 64.8125 11.1562L64.8125 43.5625Z"
                  fill="currentColor" fill-opacity="1" fill-rule="nonzero"/>
            <path id="Vector"
                  d="M29.167 34.8882C29.2837 34.9644 29.4142 35.0176 29.5513 35.0435C29.6884 35.0698 29.8292 35.0684 29.9659 35.04C30.1025 35.0117 30.2322 34.9565 30.3475 34.8784C30.4629 34.7998 30.5618 34.6992 30.6383 34.5825L39.0055 21.8325C39.16 21.5972 39.2148 21.3096 39.1576 21.0337C39.1003 20.7578 38.9358 20.5161 38.7002 20.3613C38.4647 20.2065 38.1774 20.1519 37.9014 20.209C37.6255 20.2666 37.3835 20.4307 37.229 20.6665L28.8618 33.4165C28.7852 33.5332 28.7323 33.6636 28.7062 33.8008C28.6801 33.938 28.6812 34.0786 28.7095 34.2153C28.7379 34.3521 28.7928 34.4819 28.8713 34.5972C28.9498 34.7129 29.0503 34.8115 29.167 34.8882Z"
                  fill="currentColor" fill-opacity="1" fill-rule="nonzero"/>
            <path id="Vector"
                  d="M40.7573 34.8159C40.9738 34.9966 41.2531 35.0835 41.5337 35.0576C41.8143 35.0322 42.0734 34.8965 42.2537 34.6797L47.5662 28.3047C47.7253 28.1138 47.8124 27.873 47.8124 27.6245C47.8124 27.376 47.7253 27.1357 47.5662 26.9448L42.2537 20.5698C42.1647 20.4614 42.0552 20.3721 41.9314 20.3066C41.8077 20.2407 41.6722 20.2002 41.5328 20.1875C41.3934 20.1743 41.2528 20.189 41.119 20.2305C40.9852 20.2715 40.8611 20.3394 40.7534 20.4287C40.6459 20.5186 40.557 20.6284 40.4922 20.7524C40.4272 20.8765 40.3875 21.0122 40.3752 21.1519C40.3629 21.2915 40.3783 21.4321 40.4205 21.5654C40.4628 21.6987 40.5309 21.8228 40.6212 21.9297L45.3668 27.6245L40.6212 33.3198C40.4408 33.5361 40.3538 33.8154 40.3793 34.0962C40.4049 34.3765 40.5408 34.6357 40.7573 34.8159Z"
                  fill="currentColor" fill-opacity="1" fill-rule="nonzero"/>
            <path id="Vector"
                  d="M25.7462 34.6797C25.8352 34.7881 25.9448 34.8774 26.0685 34.9429C26.1921 35.0088 26.3276 35.0493 26.467 35.062C26.6064 35.0752 26.7471 35.0605 26.8809 35.019C27.0146 34.9775 27.1389 34.9102 27.2465 34.8208C27.354 34.731 27.4429 34.6211 27.5078 34.4971C27.5726 34.3726 27.6124 34.2373 27.6248 34.0977C27.637 33.958 27.6216 33.8174 27.5793 33.6841C27.5372 33.5503 27.469 33.4268 27.3788 33.3198L22.6331 27.6245L27.3788 21.9297C27.469 21.8228 27.5372 21.6987 27.5793 21.5654C27.6216 21.4321 27.637 21.2915 27.6248 21.1519C27.6124 21.0122 27.5726 20.8765 27.5078 20.7524C27.4429 20.6284 27.354 20.5186 27.2465 20.4287C27.1389 20.3394 27.0146 20.2715 26.8809 20.2305C26.7471 20.189 26.6064 20.1743 26.467 20.1875C26.3276 20.2002 26.1921 20.2407 26.0685 20.3066C25.9448 20.3721 25.8352 20.4614 25.7462 20.5698L20.4337 26.9448C20.2747 27.1357 20.1875 27.376 20.1875 27.6245C20.1875 27.873 20.2747 28.1138 20.4337 28.3047L25.7462 34.6797Z"
                  fill="currentColor" fill-opacity="1" fill-rule="nonzero"/>
        </g>
    </g>
    <g id="photography">
        <defs/>
        <path id="Vector"
              d="M52.0675 72.9678L71.4254 72.9678L66.4561 58.0586C65.1565 54.1597 61.8402 51.2686 57.8005 50.5112L44.5192 48.0205L44.5192 44.9468C47.7008 42.6509 49.9464 39.1533 50.5981 35.1201C53.5671 34.6182 55.8417 32.0454 55.8417 28.9355L55.8417 20.1289C55.8417 9.03027 46.8113 0 35.7126 0C24.614 0 15.5836 9.03027 15.5836 20.1289L15.5836 28.9355C15.5836 32.0415 17.8469 34.6294 20.8109 35.1367C21.4651 39.1699 23.7233 42.6709 26.9062 44.9658L26.9062 48.0215L13.6235 50.5127C9.58521 51.27 6.2677 54.1611 4.96814 58.0596L0 72.9678L19.3578 72.9678L19.3578 70.4517L15.9371 70.4517L18.062 61.9497L15.6213 61.3408L13.343 70.4517L3.48987 70.4517L7.35596 58.855C8.36609 55.8228 10.9464 53.5732 14.0878 52.9834L22.1017 51.4814L24.1511 60.7002C22.8125 61.2817 21.874 62.6128 21.874 64.1611L21.874 74.2256C21.874 76.3066 23.5674 78 25.6482 78L45.7772 78C47.858 78 49.5514 76.3066 49.5514 74.2256L49.5514 64.1611C49.5514 62.6128 48.6129 61.2817 47.2755 60.7002L49.325 51.4814L57.3389 52.9834C60.4802 53.5732 63.0592 55.8228 64.0707 58.855L67.9355 70.4517L58.0823 70.4517L55.804 61.3408L53.3633 61.9497L55.4882 70.4517L52.0675 70.4517L52.0675 72.9678ZM46.8503 51.0171L45.1129 58.8345L44.2437 55.355L38.7496 55.355L43.6813 50.4233L46.8503 51.0171ZM42.9076 60.3872L28.5178 60.3872L29.1469 57.8711L42.2786 57.8711L42.9076 60.3872ZM35.7126 54.834L29.4224 48.5435L29.4224 46.4224C31.3396 47.3057 33.467 47.8066 35.7126 47.8066C37.9596 47.8066 40.0857 47.2993 42.0031 46.4165L42.0031 48.5435L35.7126 54.834ZM50.8094 32.478L50.8094 25.394C52.27 25.915 53.3256 27.2988 53.3256 28.9365C53.3256 30.5747 52.27 31.9575 50.8094 32.478ZM20.616 32.4946C19.1515 31.9751 18.0997 30.5762 18.0997 28.9355C18.0997 27.2949 19.1515 25.896 20.616 25.3765L20.616 32.4946ZM18.0997 23.936L18.0997 20.1289C18.0997 10.417 26.0004 2.51611 35.7126 2.51611C45.4249 2.51611 53.3256 10.417 53.3256 20.1289L53.3256 23.936C52.5808 23.3726 51.7203 22.9561 50.7692 22.7686C50.5717 21.2827 49.3112 20.1289 47.7725 20.1289C46.9736 20.1289 46.1912 20.4536 45.562 21.0825C43.4373 23.2075 40.745 24.5625 37.8287 25.0029L37.9093 24.8418C38.118 24.4214 38.2288 23.9521 38.2288 23.4829L38.2288 23.166C38.2288 21.4917 36.8663 20.1289 35.1919 20.1289C34.3929 20.1289 33.6105 20.4536 33.0443 21.0186C30.3936 23.668 26.8773 25.1372 23.1321 25.1611L23.1321 22.645L21.874 22.645C20.4524 22.645 19.1541 23.1372 18.0997 23.936ZM23.1321 32.7095L23.1321 27.6772C27.5491 27.6533 31.6982 25.9224 34.822 22.7988C35.1251 22.4941 35.7126 22.7422 35.7126 23.166L35.7126 23.4829C35.7126 23.5635 35.6938 23.644 35.6573 23.7168L33.6771 27.6772L35.7126 27.6772C40.1058 27.6772 44.2349 25.9678 47.4026 22.7988C47.707 22.4941 48.2933 22.7422 48.2933 23.166L48.2933 32.7095C48.2933 39.6465 42.6497 45.2905 35.7126 45.2905C28.7758 45.2905 23.1321 39.6465 23.1321 32.7095ZM27.7441 50.4233L32.6757 55.355L27.1818 55.355L26.3124 58.8345L24.5751 51.0171L27.7441 50.4233ZM25.6482 75.4839C24.955 75.4839 24.3901 74.9204 24.3901 74.2256L24.3901 64.1611C24.3901 63.4668 24.955 62.9033 25.6482 62.9033L29.562 62.9033C27.9253 64.5034 26.9062 66.7305 26.9062 69.1934C26.9062 71.6567 27.9253 73.8838 29.562 75.4839L25.6482 75.4839ZM35.7126 75.4839C32.2441 75.4839 29.4224 72.6621 29.4224 69.1934C29.4224 65.7251 32.2441 62.9033 35.7126 62.9033C39.1812 62.9033 42.0031 65.7251 42.0031 69.1934C42.0031 72.6621 39.1812 75.4839 35.7126 75.4839ZM47.0353 74.2256C47.0353 74.9204 46.4703 75.4839 45.7772 75.4839L41.8634 75.4839C43.5001 73.8838 44.5192 71.6567 44.5192 69.1934C44.5192 66.7305 43.5001 64.5034 41.8634 62.9033L45.7772 62.9033C46.4703 62.9033 47.0353 63.4668 47.0353 64.1611L47.0353 74.2256Z"
              fill="currentColor" fill-opacity="1" fill-rule="nonzero"/>
    </g>
    <g id="soundDesign">
        <defs>
            <clipPath id="clip1_331">
                <rect id="Icons/Microphone" width="74.000000" height="74.000000" fill="white" fill-opacity="0"/>
            </clipPath>
        </defs>
        <rect id="Icons/Microphone" width="74.000000" height="74.000000" fill="#FFFFFF" fill-opacity="0"/>
        <g clip-path="url(#clip1_331)">
            <path id="Vector"
                  d="M37 0C29.0176 0 22.5217 6.75342 22.5217 15.0527L22.5217 37C22.5217 45.3008 29.0176 52.0527 37 52.0527C44.9823 52.0527 51.4783 45.3008 51.4783 37L51.4783 15.0527C51.4783 6.75342 44.9823 0 37 0ZM37 48.835C31.3116 48.835 26.6062 44.374 25.8549 38.6089L48.1434 38.6089C47.3937 44.376 42.6884 48.835 37 48.835ZM48.2609 35.3911L25.7391 35.3911L25.7391 15.0527C25.7391 8.52588 30.7904 3.21729 37 3.21729C43.2095 3.21729 48.2609 8.52588 48.2609 15.0527L48.2609 35.3911Z"
                  fill="currentColor" fill-opacity="1" fill-rule="nonzero"/>
            <path id="Vector"
                  d="M59.5218 28.9565C58.6338 28.9565 57.9131 29.6772 57.9131 30.5654L57.9131 37C57.9131 48.5312 48.5312 57.9131 37.0001 57.9131C25.4689 57.9131 16.087 48.5312 16.087 37L16.087 30.5654C16.087 29.6772 15.3663 28.9565 14.4783 28.9565C13.5903 28.9565 12.8696 29.6772 12.8696 30.5654L12.8696 37C12.8696 49.7617 22.8355 60.2153 35.3914 61.0483L35.3914 70.7827L27.3479 70.7827C26.4599 70.7827 25.7392 71.5034 25.7392 72.3911C25.7392 73.2793 26.4599 74 27.3479 74L46.6522 74C47.5402 74 48.2609 73.2793 48.2609 72.3911C48.2609 71.5034 47.5402 70.7827 46.6522 70.7827L38.6088 70.7827L38.6088 61.0483C51.1646 60.2153 61.1305 49.7617 61.1305 37L61.1305 30.5654C61.1305 29.6772 60.4098 28.9565 59.5218 28.9565Z"
                  fill="currentColor" fill-opacity="1" fill-rule="nonzero"/>
        </g>
    </g>
    <g id="uIuxDesign">
        <defs/>
        <path id="Vector"
              d="M63.0996 6.0332L62.7375 6.0332L63.0076 5.7583C63.8164 4.93506 63.8164 3.59521 63.0076 2.77148L60.8912 0.617676C60.0823 -0.206055 58.7661 -0.206055 57.9572 0.617676L52.6371 6.0332L2.90039 6.0332C1.30115 6.0332 0 7.35742 0 8.98535L0 49.854C0 51.8438 1.59021 53.4624 3.54492 53.4624L26.4445 53.4624L26.4445 60.4243L21.7852 60.4243C20.5414 60.4243 19.5293 61.4541 19.5293 62.7202L19.5293 63.7036C19.5293 64.9697 20.5414 66 21.7852 66L44.2148 66C45.4586 66 46.4707 64.9697 46.4707 63.7036L46.4707 62.7202C46.4707 61.4541 45.4586 60.4243 44.2148 60.4243L39.5555 60.4243L39.5555 53.4624L49.8867 53.4624C50.4208 53.4624 50.8535 53.022 50.8535 52.4785C50.8535 51.9351 50.4208 51.4941 49.8867 51.4941L3.54492 51.4941C2.65637 51.4941 1.93359 50.7588 1.93359 49.854L1.93359 46.9414L64.0664 46.9414L64.0664 49.854C64.0664 50.7588 63.3436 51.4941 62.4551 51.4941L54.3984 51.4941C53.8644 51.4941 53.4316 51.9351 53.4316 52.4785C53.4316 53.022 53.8644 53.4624 54.3984 53.4624L62.4551 53.4624C64.4098 53.4624 66 51.8438 66 49.854L66 8.98535C66 7.35791 64.6989 6.0332 63.0996 6.0332ZM44.2148 62.3926C44.3926 62.3926 44.5371 62.5396 44.5371 62.7207L44.5371 63.7041C44.5371 63.8848 44.3926 64.0317 44.2148 64.0317L21.7852 64.0317C21.6074 64.0317 21.4629 63.8848 21.4629 63.7041L21.4629 62.7207C21.4629 62.5396 21.6074 62.3926 21.7852 62.3926L44.2148 62.3926ZM28.3781 53.4629L37.6221 53.4629L37.6221 60.4243L28.3781 60.4243L28.3781 53.4629ZM59.3245 2.00928C59.3796 1.95312 59.4691 1.95361 59.524 2.00928L61.6403 4.16357C61.6953 4.21973 61.6953 4.31055 61.6403 4.3667L59.621 6.42188L57.3052 4.06494L59.3245 2.00928ZM55.9379 5.45654L58.2535 7.81396L57.5792 8.50049L55.2635 6.14307L55.9379 5.45654ZM53.8962 7.53467L56.212 9.89209L44.7715 21.5376L42.4557 19.1802L53.8962 7.53467ZM52.4648 16.5322C53.7798 16.5322 54.8496 17.6211 54.8496 18.9595C54.8496 20.2983 53.7798 21.3872 52.4648 21.3872C51.1499 21.3872 50.0801 20.2983 50.0801 18.9595C50.0801 18.9438 50.0822 18.9287 50.0824 18.9131L52.4197 16.5347C52.4348 16.5342 52.4496 16.5322 52.4648 16.5322ZM43.0925 22.6123L40.2312 23.8018L41.3999 20.8892L43.0925 22.6123ZM64.0664 44.9731L1.93359 44.9731L1.93359 8.98535C1.93359 8.44287 2.36719 8.00146 2.90039 8.00146L50.7036 8.00146L49.2294 9.50195L16.3711 9.50195C15.837 9.50195 15.4043 9.94238 15.4043 10.4863C15.4043 11.0298 15.837 11.4702 16.3711 11.4702L47.296 11.4702L40.4767 18.4121C40.2839 18.6099 40.1333 18.8408 40.0295 19.0991L37.87 24.4814C37.6719 24.9756 37.7834 25.5391 38.1543 25.916C38.4032 26.1694 38.7343 26.3037 39.0719 26.3037C39.2374 26.3037 39.4043 26.2715 39.5641 26.2056L44.8511 24.0073C45.0979 23.9048 45.3185 23.7563 45.5093 23.5679L48.4504 20.5742C49.084 22.2012 50.6438 23.3555 52.465 23.3555C54.8462 23.3555 56.7833 21.3833 56.7833 18.9595C56.7833 17.106 55.6499 15.5186 54.0518 14.8735L57.3955 11.4702L60.6587 11.4702L60.6587 41.5044L60.1462 41.5044L56.6426 35.3271C56.3757 34.8564 55.7841 34.6953 55.3219 34.9673C54.8595 35.2388 54.701 35.8408 54.968 36.3115L57.9136 41.5044L44.4081 41.5044L42.9596 38.9507L49.7123 27.0454L52.712 32.334C52.9791 32.8047 53.5704 32.9663 54.0327 32.6943C54.4951 32.4229 54.6536 31.8208 54.3866 31.3501L51.1863 25.7075C50.8785 25.165 50.3276 24.8413 49.7122 24.8413C49.0968 24.8413 48.5457 25.165 48.238 25.7075L41.843 36.9824L33.6376 22.5161C33.3298 21.9736 32.7789 21.6499 32.1635 21.6499C31.5481 21.6499 30.9971 21.9736 30.6893 22.5161L28.5094 26.3594L28.5094 15.8105C28.5094 14.5444 27.4974 13.5146 26.2535 13.5146L9.66797 13.5146C8.42419 13.5146 7.41211 14.5444 7.41211 15.8105L7.41211 37.3301C7.41211 38.2344 8.13489 38.9702 9.02344 38.9702L21.3571 38.9702L19.9194 41.5049L5.34143 41.5049L5.34143 11.4702L11.8594 11.4702C12.3934 11.4702 12.8262 11.0298 12.8262 10.4863C12.8262 9.94238 12.3934 9.50195 11.8594 9.50195L5.01917 9.50195C4.13062 9.50195 3.40784 10.2378 3.40784 11.1421L3.40784 41.8325C3.40784 42.7368 4.13062 43.4727 5.01917 43.4727L60.981 43.4727C61.8695 43.4727 62.5923 42.7368 62.5923 41.8325L62.5923 11.1421C62.5923 10.2378 61.8695 9.50195 60.981 9.50195L59.3293 9.50195L60.8038 8.00146L63.0996 8.00146C63.6328 8.00146 64.0664 8.44287 64.0664 8.98535L64.0664 44.9731ZM26.5762 21.2607L26.5762 37.0015L9.3457 37.0015L9.3457 21.2607L26.5762 21.2607ZM9.3457 19.2925L9.3457 15.8105C9.3457 15.6294 9.49023 15.4824 9.66797 15.4824L26.2539 15.4824C26.4318 15.4824 26.5762 15.6294 26.5762 15.8105L26.5762 19.2925L9.3457 19.2925ZM23.5898 38.9697L26.8984 38.9697C27.787 38.9697 28.5098 38.2344 28.5098 37.3296L28.5098 35.2451C28.7516 35.3633 29.0209 35.4272 29.303 35.4272C29.963 35.4272 30.5538 35.0796 30.8838 34.498L32.5291 31.5972C32.5789 31.5093 32.6549 31.4912 32.7097 31.4912C32.7648 31.4912 32.8408 31.5093 32.8904 31.5972L33.9048 33.3853C34.2347 33.9673 34.8258 34.3149 35.486 34.3149C36.146 34.3149 36.7369 33.9673 37.0669 33.3857L37.3187 32.9414L42.1754 41.5044L22.1523 41.5044L23.5898 38.9697ZM28.5098 31.9507L28.5098 30.2954L32.1639 23.8535L36.2023 30.9731L35.4858 32.2363L34.5649 30.6128C34.1777 29.9302 33.4841 29.5225 32.7096 29.5225C31.9351 29.5225 31.2416 29.9302 30.8544 30.6128L29.3026 33.3486L28.5098 31.9507Z"
              fill="currentColor" fill-opacity="1" fill-rule="nonzero"/>
    </g>
    <g id="gameDesign">
        <defs>
            <clipPath id="clip1_346">
                <rect id="Icons/game-development" width="74.000000" height="74.000000" fill="white" fill-opacity="0"/>
            </clipPath>
        </defs>
        <rect id="Icons/game-development" width="74.000000" height="74.000000" fill="#FFFFFF" fill-opacity="0"/>
        <g clip-path="url(#clip1_346)">
            <path id="Vector" d="M32.375 38.1562L41.625 38.1562L41.625 40.4688L32.375 40.4688L32.375 38.1562Z"
                  fill="currentColor" fill-opacity="1" fill-rule="nonzero"/>
            <path id="Vector" d="M35.8438 34.6875L38.1562 34.6875L38.1562 43.9375L35.8438 43.9375L35.8438 34.6875Z"
                  fill="currentColor" fill-opacity="1" fill-rule="nonzero"/>
            <path id="Vector" d="M65.9062 38.1562L68.2188 38.1562L68.2188 40.4688L65.9062 40.4688L65.9062 38.1562Z"
                  fill="currentColor" fill-opacity="1" fill-rule="nonzero"/>
            <path id="Vector" d="M56.6562 38.1562L58.9688 38.1562L58.9688 40.4688L56.6562 40.4688L56.6562 38.1562Z"
                  fill="currentColor" fill-opacity="1" fill-rule="nonzero"/>
            <path id="Vector" d="M61.2812 33.5312L63.5938 33.5312L63.5938 35.8438L61.2812 35.8438L61.2812 33.5312Z"
                  fill="currentColor" fill-opacity="1" fill-rule="nonzero"/>
            <path id="Vector" d="M61.2812 42.7812L63.5938 42.7812L63.5938 45.0938L61.2812 45.0938L61.2812 42.7812Z"
                  fill="currentColor" fill-opacity="1" fill-rule="nonzero"/>
            <path id="Vector"
                  d="M10.6597 20.3789L5.45654 13.875L10.6597 7.37109L12.4652 8.81641L8.41833 13.875L12.4652 18.9336L10.6597 20.3789Z"
                  fill="currentColor" fill-opacity="1" fill-rule="nonzero"/>
            <path id="Vector"
                  d="M28.6527 20.3789L26.8472 18.9336L30.8951 13.875L26.8472 8.81641L28.6527 7.37109L33.8547 13.875L28.6527 20.3789Z"
                  fill="currentColor" fill-opacity="1" fill-rule="nonzero"/>
            <path id="Vector" d="M14.7377 17.7368L22.8337 8.48926L24.5737 10.0117L16.4777 19.2603L14.7377 17.7368Z"
                  fill="currentColor" fill-opacity="1" fill-rule="nonzero"/>
            <path id="Vector"
                  d="M9.25 50.875L4.625 50.875L4.625 46.25L6.9375 46.25L6.9375 48.5625L9.25 48.5625L9.25 50.875Z"
                  fill="currentColor" fill-opacity="1" fill-rule="nonzero"/>
            <path id="Vector"
                  d="M70.5312 2.3125L3.46875 2.3125C1.5531 2.3125 0 3.86572 0 5.78125L0 52.0312C0 53.9468 1.5531 55.5 3.46875 55.5L27.75 55.5L27.75 61.2812C27.75 63.1968 26.1969 64.75 24.2812 64.75L18.5 64.75L18.5 71.6875L55.5 71.6875L55.5 64.75L49.7188 64.75C47.8031 64.75 46.25 63.1968 46.25 61.2812L46.25 55.5L70.5312 55.5C72.4469 55.5 74 53.9468 74 52.0312L74 5.78125C74 3.86572 72.4469 2.3125 70.5312 2.3125ZM53.1875 67.0625L53.1875 69.375L20.8125 69.375L20.8125 67.0625L53.1875 67.0625ZM37 62.4858C38.9156 62.4858 40.4688 60.9331 40.4688 59.0171L40.4688 55.5L43.9375 55.5L43.9375 61.2812C43.942 62.5361 44.3586 63.7554 45.1237 64.75L28.8763 64.75C29.6414 63.7554 30.058 62.5361 30.0625 61.2812L30.0625 55.5L33.5312 55.5L33.5312 59.0171C33.5312 60.9331 35.0844 62.4858 37 62.4858ZM35.8438 59.0171L35.8438 55.5L38.1562 55.5L38.1562 59.0171C38.1562 59.6558 37.6385 60.1733 37 60.1733C36.3615 60.1733 35.8438 59.6558 35.8438 59.0171ZM71.6875 52.0312C71.6875 52.6699 71.1698 53.1875 70.5312 53.1875L3.46875 53.1875C2.8302 53.1875 2.3125 52.6699 2.3125 52.0312L2.3125 41.625L25.6689 41.625C26.6265 46.332 30.3956 49.9551 35.137 50.7261C39.8777 51.4971 44.6008 49.2549 47.0004 45.0938L52.4349 45.0938C54.3726 48.4624 57.8774 50.6289 61.7572 50.856C65.637 51.0825 69.3699 49.3398 71.6875 46.2202L71.6875 52.0312ZM62.4375 48.5625C58.923 48.5708 55.7112 46.5757 54.1609 43.4219L53.8407 42.7812L45.5968 42.7812L45.2766 43.4219C43.2488 47.5107 38.5419 49.5098 34.1918 48.1294C29.8412 46.7485 27.1482 42.4019 27.8494 37.8916C28.55 33.3818 32.436 30.0576 37 30.0625L62.4375 30.0625C67.5464 30.0625 71.6875 34.2036 71.6875 39.3125C71.6875 44.4214 67.5464 48.5625 62.4375 48.5625ZM71.6875 32.4048C69.5127 29.4795 66.083 27.7534 62.4375 27.75L37 27.75C30.6169 27.7568 25.4443 32.9292 25.4375 39.3125L2.3125 39.3125L2.3125 5.78125C2.3125 5.14258 2.8302 4.625 3.46875 4.625L70.5312 4.625C71.1698 4.625 71.6875 5.14258 71.6875 5.78125L71.6875 32.4048Z"
                  fill="currentColor" fill-opacity="1" fill-rule="nonzero"/>
            <path id="Vector" d="M47.4062 38.1562L52.0312 38.1562L52.0312 40.4688L47.4062 40.4688L47.4062 38.1562Z"
                  fill="currentColor" fill-opacity="1" fill-rule="nonzero"/>
            <path id="Vector" d="M34.6875 9.25L43.9375 9.25L43.9375 11.5625L34.6875 11.5625L34.6875 9.25Z"
                  fill="currentColor" fill-opacity="1" fill-rule="nonzero"/>
            <path id="Vector" d="M48.5625 9.25L67.0625 9.25L67.0625 11.5625L48.5625 11.5625L48.5625 9.25Z"
                  fill="currentColor" fill-opacity="1" fill-rule="nonzero"/>
            <path id="Vector" d="M50.875 13.875L67.0625 13.875L67.0625 16.1875L50.875 16.1875L50.875 13.875Z"
                  fill="currentColor" fill-opacity="1" fill-rule="nonzero"/>
            <path id="Vector" d="M37 13.875L46.25 13.875L46.25 16.1875L37 16.1875L37 13.875Z" fill="currentColor"
                  fill-opacity="1" fill-rule="nonzero"/>
            <path id="Vector" d="M34.6875 18.5L57.8125 18.5L57.8125 20.8125L34.6875 20.8125L34.6875 18.5Z"
                  fill="currentColor" fill-opacity="1" fill-rule="nonzero"/>
            <path id="Vector" d="M62.4375 18.5L67.0625 18.5L67.0625 20.8125L62.4375 20.8125L62.4375 18.5Z"
                  fill="currentColor" fill-opacity="1" fill-rule="nonzero"/>
            <path id="Vector" d="M6.9375 23.125L18.5 23.125L18.5 25.4375L6.9375 25.4375L6.9375 23.125Z"
                  fill="currentColor" fill-opacity="1" fill-rule="nonzero"/>
            <path id="Vector" d="M23.125 23.125L45.0938 23.125L45.0938 25.4375L23.125 25.4375L23.125 23.125Z"
                  fill="currentColor" fill-opacity="1" fill-rule="nonzero"/>
            <path id="Vector" d="M48.5625 23.125L67.0625 23.125L67.0625 25.4375L48.5625 25.4375L48.5625 23.125Z"
                  fill="currentColor" fill-opacity="1" fill-rule="nonzero"/>
            <path id="Vector" d="M6.9375 27.75L25.4375 27.75L25.4375 30.0625L6.9375 30.0625L6.9375 27.75Z"
                  fill="currentColor" fill-opacity="1" fill-rule="nonzero"/>
            <path id="Vector" d="M6.9375 32.375L16.1875 32.375L16.1875 34.6875L6.9375 34.6875L6.9375 32.375Z"
                  fill="currentColor" fill-opacity="1" fill-rule="nonzero"/>
            <path id="Vector" d="M18.5 32.375L23.125 32.375L23.125 34.6875L18.5 34.6875L18.5 32.375Z"
                  fill="currentColor" fill-opacity="1" fill-rule="nonzero"/>
        </g>
    </g>
    <g id="selected">
        <desc>
            Created with Pixso.
        </desc>
        <defs/>
        <path id="Vector"
              d="M6.59875 9.19312L16.1298 0L17.5969 1.41406L6.59875 12.021L0 5.65698L1.46619 4.24292L6.59875 9.19312Z"
              fill="currentColor" fill-opacity="1" fill-rule="nonzero"/>
    </g>
    <g id="star">
        <defs/>
        <path id="Shape"
              d="M9 13.2449L12.9108 12.2344L14.5447 17.3684L9 13.2449ZM18 6.60864L11.1161 6.60864L9 0L6.88391 6.60864L0 6.60864L5.57141 10.7051L3.45532 17.3137L9.02673 13.2175L12.4553 10.7051L18 6.60864Z"
              fill="currentColor" fill-opacity="1" fill-rule="nonzero"/>
    </g>
    <g id="dropSlider">
        <circle id="Ellipse 19" cx="5.000000" cy="5.000000" r="5.000000" fill="currentColor" fill-opacity="1"/>
    </g>
    <g id="address">
        <defs>
            <clipPath id="clip1_997">
                <rect id="Icons/location" width="18.000000" height="18.000000"
                      transform="translate(11 11)" fill="white" fill-opacity="0"/>
            </clipPath>
        </defs>
        <circle id="Ellipse 41" cx="20.000000" cy="20.000000" r="20.000000" fill="currentColor"
                fill-opacity="1"/>
        <rect id="cons/location" width="18.000000" height="18.000000" transform="translate(11 11)"
              fill="#FFFFFF" fill-opacity="0"/>
        <rect id="cons/location" width="18.000000" height="18.000000" transform="translate(11 11)"
              fill="#FFFFFF" fill-opacity="0"/>
        <rect id="Icons/location" width="18.000000" height="18.000000" transform="translate(11 11)"
              fill="#FFFFFF" fill-opacity="0"/>
        <g clip-path="url(#clip1_997)">
            <path id="Vector"
                  d="M12.5 14.75L17.75 12.5L22.25 14.75L26.9772 12.7242C27.0343 12.6998 27.0966 12.6898 27.1584 12.6954C27.2202 12.7009 27.2797 12.7217 27.3315 12.756C27.3834 12.7902 27.4259 12.8367 27.4553 12.8914C27.4847 12.946 27.5001 13.0072 27.5 13.0692L27.5 25.25L22.25 27.5L17.75 25.25L13.0228 27.2758C12.9657 27.3002 12.9034 27.3102 12.8416 27.3046C12.7798 27.2991 12.7203 27.2783 12.6685 27.244C12.6166 27.2098 12.5741 27.1633 12.5447 27.1086C12.5153 27.054 12.4999 26.9928 12.5 26.9308L12.5 14.75ZM22.25 25.823L22.25 16.382L22.2012 16.403L17.75 14.177L17.75 23.618L17.7988 23.597L22.25 25.823Z"
                  fill="#2B2B2B" fill-opacity="1" fill-rule="nonzero"/>
        </g>
    </g>
    <g id="email">
        <defs>
            <clipPath id="clip1_969">
                <rect id="Icons/mail" width="18.000000" height="18.000000" transform="translate(11 11)"
                      fill="white" fill-opacity="0"/>
            </clipPath>
        </defs>
        <circle id="Ellipse 42" cx="20.000000" cy="20.000000" r="20.000000" fill="currentColor"
                fill-opacity="1"/>
        <rect id="cons/mail" width="18.000000" height="18.000000" transform="translate(11 11)"
              fill="#FFFFFF" fill-opacity="0"/>
        <rect id="cons/mail" width="18.000000" height="18.000000" transform="translate(11 11)"
              fill="#FFFFFF" fill-opacity="0"/>
        <rect id="Icons/mail" width="18.000000" height="18.000000" transform="translate(11 11)"
              fill="#FFFFFF" fill-opacity="0"/>
        <g clip-path="url(#clip1_969)">
            <path id="Vector"
                  d="M13.25 13.25L26.75 13.25C26.9489 13.25 27.1396 13.329 27.2803 13.4697C27.421 13.6104 27.5 13.8011 27.5 14L27.5 26C27.5 26.1989 27.421 26.3896 27.2803 26.5303C27.1396 26.671 26.9489 26.75 26.75 26.75L13.25 26.75C13.0511 26.75 12.8604 26.671 12.7197 26.5303C12.579 26.3896 12.5 26.1989 12.5 26L12.5 14C12.5 13.8011 12.579 13.6104 12.7197 13.4697C12.8604 13.329 13.0511 13.25 13.25 13.25ZM20.045 19.7622L15.236 15.6785L14.2648 16.8215L20.0547 21.7378L25.7405 16.8177L24.7595 15.683L20.0458 19.7622L20.045 19.7622Z"
                  fill="#2B2B2B" fill-opacity="1" fill-rule="nonzero"/>
        </g>
    </g>
    <g id="tel">
        <defs>
            <clipPath id="clip1_983">
                <rect id="Icons/Mobile" width="18.000000" height="18.000000" transform="translate(11 11)"
                      fill="white" fill-opacity="0"/>
            </clipPath>
        </defs>
        <circle id="ellipse 43" cx="20.000000" cy="20.000000" r="20.000000" fill="currentColor"
                fill-opacity="1"/>
        <rect id="Icons/Mobile" width="18.000000" height="18.000000" transform="translate(11 11)"
              fill="#FFFFFF" fill-opacity="0"/>
        <rect id="Icons/Mobile" width="18.000000" height="18.000000" transform="translate(11 11)"
              fill="#FFFFFF" fill-opacity="0"/>
        <rect id="Icons/Mobile" width="18.000000" height="18.000000" transform="translate(11 11)"
              fill="#FFFFFF" fill-opacity="0"/>
        <g clip-path="url(#clip1_983)">
            <path id="Vector"
                  d="M15.5 12.5L24.5 12.5C24.6989 12.5 24.8896 12.579 25.0303 12.7197C25.171 12.8604 25.25 13.0511 25.25 13.25L25.25 26.75C25.25 26.9489 25.171 27.1396 25.0303 27.2803C24.8896 27.421 24.6989 27.5 24.5 27.5L15.5 27.5C15.3011 27.5 15.1104 27.421 14.9697 27.2803C14.829 27.1396 14.75 26.9489 14.75 26.75L14.75 13.25C14.75 13.0511 14.829 12.8604 14.9697 12.7197C15.1104 12.579 15.3011 12.5 15.5 12.5ZM20 23.75C19.8011 23.75 19.6104 23.829 19.4697 23.9697C19.329 24.1104 19.25 24.3011 19.25 24.5C19.25 24.6989 19.329 24.8896 19.4697 25.0303C19.6104 25.171 19.8011 25.25 20 25.25C20.1989 25.25 20.3896 25.171 20.5303 25.0303C20.671 24.8896 20.75 24.6989 20.75 24.5C20.75 24.3011 20.671 24.1104 20.5303 23.9697C20.3896 23.829 20.1989 23.75 20 23.75Z"
                  fill="#2B2B2B" fill-opacity="1" fill-rule="nonzero"/>
        </g>
    </g>
    <g id="arrow">
        <path id="Vector"
              d="M8.11462 4.51855L4.5387 0.942871L5.48132 0L10.6666 5.18555L5.48132 10.3706L4.5387 9.42822L8.11462 5.85205L0 5.85205L0 4.51855L8.11462 4.51855Z"
              fill="currentColor" fill-opacity="1" fill-rule="nonzero"/>
    </g>
    <g id="angleBracket">
        <path id="Vector"
              d="M2.35748 3.53564L0 1.1792L1.17834 0L4.71417 3.53564L1.17834 7.07178L0 5.89258L2.35748 3.53564Z"
              fill="currentColor" fill-opacity="1" fill-rule="nonzero"/>
    </g>
    <g id="noSelected">
        <path id="Vector"
              d="M6.59875 4.94995L11.7313 0L13.1975 1.41406L8.06494 6.36401L13.1975 11.314L11.7313 12.728L6.59875 7.77808L1.46619 12.728L0 11.314L5.13257 6.36401L0 1.41406L1.46619 0L6.59875 4.94995Z"
              fill="#767676" fill-opacity="1" fill-rule="nonzero"/>
    </g>
    <g id="ser">
        <path id="Vector"
              d="M13 13L13 0L17.3334 0L17.3334 13L30.3334 13L30.3334 17.3333L17.3334 17.3333L17.3334 30.3333L13 30.3333L13 17.3333L0 17.3333L0 13L13 13Z"
              fill="#2B2B2B" fill-opacity="1" fill-rule="nonzero"/>
    </g>
    <g id="socialIconInst">
        <defs>
            <clipPath id="clip1588_4807">
                <rect id="file-code" width="16.500000" height="18.000000" transform="translate(12.000000 11)"
                      fill="white" fill-opacity="0"/>
            </clipPath>
            <clipPath id="clip1588_4806">
                <rect id="Icons/Services" width="18.000000" height="18.000000"
                      transform="translate(11 11)" fill="white" fill-opacity="0"/>
            </clipPath>
        </defs>
        <circle id="Ellipse 10" cx="20.000000" cy="20.000000" r="20.000000" fill="#F0F0F6" fill-opacity="1"/>
        <rect id="Icons/Services" width="18.000000" height="18.000000" transform="translate(11 11)"
              fill="#FFFFFF" fill-opacity="0"/>
        <rect id="Icons/Services" width="18.000000" height="18.000000" transform="translate(11 11)"
              fill="#FFFFFF" fill-opacity="0"/>
        <g clip-path="url(#clip1588_4806)">
            <rect id="file-code" width="16.500000" height="18.000000" transform="translate(12.000000 11)"
                  fill="#000000" fill-opacity="0"/>
            <g clip-path="url(#clip1588_4807)">
                <path id="Vector"
                      d="M28.5 15.2871L28.5 15.5L23 15.5L23 11L23.2603 11C23.5339 11 23.7961 11.0889 23.9895 11.2471L28.198 14.6904C28.3914 14.8486 28.5 15.063 28.5 15.2871ZM22.6562 16.625C22.0891 16.625 21.625 16.2451 21.625 15.7812L21.625 11L13.0312 11C12.4617 11 12 11.3779 12 11.8438L12 28.1562C12 28.6221 12.4617 29 13.0312 29L27.4688 29C28.0383 29 28.5 28.6221 28.5 28.1562L28.5 16.625L22.6562 16.625ZM17.2939 25.0801C17.2732 25.0986 17.248 25.1133 17.2205 25.1235C17.1926 25.1338 17.1626 25.1392 17.1323 25.1401C17.1018 25.1411 17.0713 25.1367 17.043 25.1279C17.0144 25.1191 16.9883 25.106 16.9661 25.0889L14.1787 22.9512C14.1558 22.9331 14.1372 22.9116 14.1245 22.8882C14.1121 22.8643 14.1055 22.8384 14.1055 22.8125C14.1055 22.7866 14.1121 22.7607 14.1245 22.7368C14.1372 22.7134 14.1558 22.6919 14.1787 22.6738L16.9661 20.5361C16.9883 20.519 17.0144 20.5059 17.043 20.4971C17.0713 20.4883 17.1018 20.4839 17.1323 20.4849C17.1626 20.4858 17.1926 20.4912 17.2205 20.5015C17.248 20.5117 17.2732 20.5264 17.2939 20.5449L18.1353 21.2788C18.1565 21.2974 18.1731 21.3193 18.1838 21.3433C18.1946 21.3672 18.1992 21.3926 18.1978 21.418C18.1963 21.4434 18.1885 21.4683 18.175 21.4912C18.1616 21.5142 18.1426 21.5347 18.1194 21.5513L16.3677 22.8125L18.1194 24.0737C18.1426 24.0903 18.1616 24.1108 18.175 24.1338C18.1885 24.1567 18.1963 24.1816 18.1978 24.207C18.1992 24.2324 18.1946 24.2578 18.1838 24.2817C18.1731 24.3057 18.1565 24.3276 18.1353 24.3462L17.2939 25.0801ZM19.498 26.855L18.3184 26.5747C18.2593 26.5605 18.2095 26.5278 18.1799 26.4839C18.1501 26.4399 18.1431 26.3877 18.1604 26.3394L20.8003 18.8994C20.8174 18.8511 20.8574 18.8105 20.9114 18.7861C20.9653 18.7617 21.0288 18.7559 21.0879 18.77L22.2673 19.0503C22.2966 19.0571 22.324 19.0688 22.3477 19.0845C22.3716 19.1001 22.3914 19.1191 22.406 19.1411C22.4207 19.1631 22.4299 19.187 22.4333 19.2119C22.4368 19.2363 22.4341 19.2617 22.4255 19.2856L19.7856 26.7256C19.7771 26.7495 19.7629 26.772 19.7439 26.791C19.7249 26.8105 19.7014 26.8271 19.6746 26.8389C19.6479 26.8511 19.6187 26.8584 19.5884 26.8613C19.5581 26.8643 19.5273 26.8618 19.498 26.855ZM26.4072 22.9512L23.6199 25.0889C23.5977 25.106 23.5715 25.1191 23.543 25.1279C23.5146 25.1367 23.4841 25.1411 23.4536 25.1401C23.4233 25.1392 23.3933 25.1338 23.3655 25.1235C23.3379 25.1133 23.3127 25.0986 23.292 25.0801L22.4507 24.3462C22.4294 24.3276 22.4128 24.3057 22.4021 24.2817C22.3914 24.2578 22.3867 24.2324 22.3882 24.207C22.3896 24.1816 22.3972 24.1567 22.4109 24.1338C22.4243 24.1108 22.4434 24.0903 22.4666 24.0737L24.2183 22.8125L22.4666 21.5513C22.4434 21.5347 22.4243 21.5142 22.4109 21.4912C22.3975 21.4683 22.3896 21.4434 22.3882 21.418C22.3867 21.3926 22.3914 21.3672 22.4021 21.3433C22.4128 21.3193 22.4294 21.2974 22.4507 21.2788L23.292 20.5449C23.3127 20.5264 23.3379 20.5117 23.3655 20.5015C23.3933 20.4912 23.4233 20.4858 23.4539 20.4849C23.4841 20.4839 23.5146 20.4883 23.5432 20.4971C23.5715 20.5059 23.5977 20.519 23.6199 20.5361L26.4072 22.6738C26.4304 22.6919 26.4487 22.7134 26.4614 22.7368C26.4739 22.7607 26.4805 22.7866 26.4805 22.8125C26.4805 22.8384 26.4739 22.8643 26.4614 22.8882C26.4487 22.9116 26.4302 22.9331 26.4072 22.9512Z"
                      fill="#767676" fill-opacity="1" fill-rule="nonzero"/>
            </g>
        </g>
    </g>
    <g id="socialIconFb">
        <rect width="24.000000" height="24.000000" fill="currentColor" fill-opacity="0"/>
        <path id="Ellipse 9"
              d="M0 12C0 5.37256 5.37256 0 12 0C18.6274 0 24 5.37256 24 12C24 18.6274 18.6274 24 12 24C5.37256 24 0 18.6274 0 12Z"
              fill="currentColor" fill-opacity="1" fill-rule="evenodd"/>
        <rect id="Icons-facebook" width="14.000000" height="14.000000" transform="translate(5.000000 5.000000)"
              fill="currentColor" fill-opacity="0"/>
        <rect id="Icons-facebook" width="14.000000" height="14.000000" transform="translate(5.000000 5.000000)"
              fill="currentColor" fill-opacity="0"/>
        <rect id="Icons-facebook" width="14.000000" height="14.000000" transform="translate(5.000000 5.000000)"
              fill="currentColor" fill-opacity="0"/>
        <g clip-path="url(#clip75_11)">
            <path id="Vector"
                  d="M13.1665 12.875L14.625 12.875L15.2083 10.5415L13.1665 10.5415L13.1665 9.375C13.1665 8.77393 13.1665 8.20801 14.3333 8.20801L15.2083 8.20801L15.2083 6.24805C15.0181 6.22314 14.3 6.1665 13.5417 6.1665C11.958 6.1665 10.8333 7.1333 10.8333 8.9082L10.8333 10.5415L9.08325 10.5415L9.08325 12.875L10.8333 12.875L10.8333 17.833L13.1665 17.833L13.1665 12.875Z"
                  fill="#2B2B2B" fill-opacity="1" fill-rule="nonzero"/>
        </g>
    </g>
    <g id="socialIconTweet">
        <rect width="24.000000" height="24.000000" fill="currentColor" fill-opacity="0"/>
        <circle id="Ellipse 9" cx="12.000000" cy="12.000000" r="12.000000" fill="currentColor" fill-opacity="1"/>
        <rect id="Icons-twitter" width="14.000000" height="14.000000" transform="translate(5.000000 5.000000)"
              fill="currentColor" fill-opacity="0"/>
        <rect id="Icons-twitter" width="14.000000" height="14.000000" transform="translate(5.000000 5.000000)"
              fill="currentColor" fill-opacity="0"/>
        <rect id="Icons-twitter" width="14.000000" height="14.000000" transform="translate(5.000000 5.000000)"
              fill="currentColor" fill-opacity="0"/>
        <g clip-path="url(#clip75_174)">
            <path id="Vector"
                  d="M17.928 8.29932C17.4827 8.49658 17.0103 8.62598 16.5269 8.68359C17.0364 8.37842 17.418 7.89893 17.6001 7.3335C17.1218 7.61816 16.5974 7.81787 16.0508 7.92578C15.6836 7.53271 15.197 7.27246 14.6665 7.18457C14.136 7.09668 13.5913 7.18701 13.1174 7.44043C12.6433 7.69434 12.2664 8.09766 12.0452 8.5874C11.8237 9.07764 11.7708 9.62695 11.894 10.1504C10.9238 10.1021 9.97485 9.84961 9.10864 9.41064C8.24243 8.97119 7.47827 8.35498 6.86548 7.60107C6.64868 7.97363 6.53491 8.39697 6.5354 8.82812C6.5354 9.67383 6.96582 10.4209 7.62036 10.8584C7.23315 10.8462 6.85425 10.7417 6.51562 10.5537L6.51562 10.584C6.51562 11.147 6.71069 11.6934 7.06738 12.1294C7.42407 12.5649 7.92065 12.8643 8.47266 12.9761C8.11304 13.0737 7.73608 13.0879 7.37012 13.0181C7.52588 13.5029 7.82935 13.9272 8.23804 14.231C8.64673 14.5347 9.14014 14.7031 9.64917 14.7129C9.14331 15.1104 8.56372 15.4038 7.94409 15.5771C7.32446 15.7505 6.67676 15.8003 6.03784 15.7231C7.15308 16.4404 8.45117 16.8208 9.7771 16.8198C14.2646 16.8198 16.7188 13.1021 16.7188 9.87793C16.7188 9.77295 16.7158 9.66699 16.7112 9.56299C17.1887 9.21777 17.6011 8.79004 17.9285 8.30029L17.928 8.29932Z"
                  fill="#2B2B2B" fill-opacity="1" fill-rule="nonzero"/>
        </g>
    </g>
    <g id="socialIconLink">
        <circle id="Ellipse 18" cx="12.000000" cy="12.000000" r="12.000000" fill="currentColor"
                fill-opacity="1"/>
        <rect id="Icons-linkedin" width="14.000000" height="14.000000" transform="translate(5.000000 5.000000)"
              fill="currentColor" fill-opacity="0"/>
        <rect id="Icons-linkedin" width="14.000000" height="14.000000" transform="translate(5.000000 5.000000)"
              fill="currentColor" fill-opacity="0"/>
        <rect id="Icons-linkedin" width="14.000000" height="14.000000" transform="translate(5.000000 5.000000)"
              fill="currentColor" fill-opacity="0"/>
        <g clip-path="url(#clip77_95)">
            <path id="Vector"
                  d="M9.04834 7.91699C9.04834 8.22607 8.92529 8.52295 8.7063 8.7417C8.4873 8.96045 8.19067 9.08301 7.8811 9.08301C7.57178 9.08252 7.27515 8.95947 7.0564 8.74072C6.83765 8.52197 6.71484 8.2251 6.71509 7.91553C6.71533 7.60596 6.83838 7.30957 7.05713 7.09082C7.27612 6.87207 7.573 6.74951 7.88232 6.74951C8.19165 6.74951 8.48853 6.87256 8.70703 7.0918C8.92578 7.31055 9.04858 7.60742 9.04834 7.91699ZM9.0835 9.94678L6.75 9.94678L6.75 17.25L9.0835 17.25L9.0835 9.94678ZM12.77 9.94678L10.4485 9.94678L10.4485 17.25L12.7468 17.25L12.7468 13.4175C12.7468 11.2827 15.5293 11.0845 15.5293 13.4175L15.5293 17.25L17.8335 17.25L17.8335 12.624C17.8335 9.0249 13.7151 9.15918 12.7468 10.9268L12.77 9.94678Z"
                  fill="#2B2B2B" fill-opacity="1" fill-rule="nonzero"/>
        </g>
    </g>
    <g id="socialIconYout">
        <circle id="Ellipse 9" cx="12.000000" cy="12.000000" r="12.000000" fill="currentColor" fill-opacity="1"/>
        <rect id="Icons-Youtube" width="14.000000" height="14.000000" transform="translate(5.000000 5.000000)"
              fill="#FFFFFF" fill-opacity="0"/>
        <rect id="Icons-Youtube" width="14.000000" height="14.000000" transform="translate(5.000000 5.000000)"
              fill="currentColor" fill-opacity="0"/>
        <rect id="Icons-Youtube" width="14.000000" height="14.000000" transform="translate(5.000000 5.000000)"
              fill="currentColor" fill-opacity="0"/>
        <g clip-path="url(#clip77_247)">
            <path id="Vector"
                  d="M17.5669 8.79053C17.8335 9.83008 17.8335 12 17.8335 12C17.8335 12 17.8335 14.1699 17.5669 15.2095C17.4187 15.7842 16.9854 16.2363 16.4363 16.3892C15.4395 16.667 12 16.667 12 16.667C12 16.667 8.5625 16.667 7.56372 16.3892C7.0127 16.2339 6.57983 15.7827 6.43335 15.2095C6.16675 14.1699 6.16675 12 6.16675 12C6.16675 12 6.16675 9.83008 6.43335 8.79053C6.58154 8.21631 7.01489 7.76416 7.56372 7.61133C8.5625 7.3335 12 7.3335 12 7.3335C12 7.3335 15.4395 7.3335 16.4363 7.61133C16.9875 7.76611 17.4204 8.21777 17.5669 8.79053ZM10.8335 14.042L14.3335 12L10.8335 9.9585L10.8335 14.042Z"
                  fill="#2B2B2B" fill-opacity="1" fill-rule="nonzero"/>
        </g>
    </g>
    <g id="socialIconDribbble">
        <circle id="Ellipse 9" cx="12.000000" cy="12.000000" r="12.000000" fill="#FFB400" fill-opacity="1"/>
        <rect id="Icons-dribbble" width="14.000000" height="14.000000" transform="translate(5.000000 5.000000)"
              fill="currentColor" fill-opacity="0"/>
        <rect id="Icons-dribbble" width="14.000000" height="14.000000" transform="translate(5.000000 5.000000)"
              fill="currentColor" fill-opacity="0"/>
        <rect id="Icons-dribbble" width="14.000000" height="14.000000" transform="translate(5.000000 5.000000)"
              fill="currentColor" fill-opacity="0"/>
        <g clip-path="url(#clip77_32)">
            <path id="Vector"
                  d="M16.6604 11.75C16.6125 10.832 16.2932 9.94873 15.7427 9.21191C15.575 9.39258 15.3958 9.56201 15.2061 9.71973C14.6233 10.2036 13.9719 10.5986 13.2734 10.8921C13.3708 11.0962 13.4602 11.2939 13.5388 11.4805L13.5388 11.4824C13.561 11.5347 13.5825 11.5869 13.603 11.6401C14.4863 11.5405 15.4172 11.5771 16.3196 11.6987C16.4399 11.7153 16.553 11.7329 16.6604 11.75ZM11.1858 7.4043C11.7542 8.20557 12.2786 9.03711 12.7561 9.89502C13.4695 9.61377 14.0593 9.25928 14.5342 8.86426C14.699 8.72852 14.854 8.58154 14.9985 8.42383C14.1589 7.71777 13.0969 7.33154 12 7.33301C11.7271 7.33301 11.4546 7.35645 11.1858 7.40381L11.1858 7.4043ZM7.48096 10.8315C7.87842 10.8213 8.27539 10.7974 8.6709 10.7598C9.62744 10.6743 10.5757 10.5137 11.5071 10.2803C11.0203 9.43457 10.4949 8.61182 9.93213 7.81445C9.33105 8.1123 8.80127 8.53564 8.37842 9.05615C7.95532 9.57666 7.64941 10.1821 7.48096 10.8315ZM8.37354 14.937C8.59985 14.606 8.89722 14.2339 9.29224 13.8291C10.1404 12.96 11.1414 12.2832 12.2998 11.9102L12.3362 11.8994C12.2397 11.687 12.1494 11.4976 12.0583 11.3188C10.9873 11.6313 9.85913 11.8262 8.73511 11.9268C8.18677 11.9766 7.69507 11.998 7.3335 12.0015C7.33228 13.0708 7.69995 14.1074 8.37402 14.937L8.37354 14.937ZM13.7529 16.3252C13.5281 15.1909 13.2097 14.0771 12.801 12.9951C11.6331 13.4189 10.7026 14.0391 9.9834 14.7788C9.69312 15.0718 9.43555 15.3955 9.21533 15.7441C10.0195 16.3442 10.9966 16.668 12 16.6665C12.6008 16.6675 13.196 16.5518 13.7529 16.3267L13.7529 16.3252ZM14.8457 15.6982C15.7563 14.998 16.3767 13.9863 16.5879 12.8574C16.3896 12.8076 16.1382 12.7583 15.8618 12.7197C15.2471 12.6313 14.6233 12.6245 14.0068 12.7002C14.3538 13.6797 14.634 14.6816 14.8457 15.6987L14.8457 15.6982ZM12 17.833C8.77832 17.833 6.16675 15.2217 6.16675 12C6.16675 8.77832 8.77832 6.1665 12 6.1665C15.2219 6.1665 17.8335 8.77832 17.8335 12C17.8335 15.2217 15.2219 17.833 12 17.833Z"
                  fill="#2B2B2B" fill-opacity="1" fill-rule="nonzero"/>
        </g>
    </g>
    <g id="SidebarIconFacebook">
        <defs>
            <clipPath id="clip1_58">
                <rect id="Icons-facebook" width="14.000000" height="14.000000" transform="translate(5.000000 5.000000)"
                      fill="" fill-opacity="0"/>
            </clipPath>
        </defs>
        <circle id="Ellipse 9" cx="12.000000" cy="12.000000" r="12.000000" fill="currentColor" fill-opacity="1"/>
        <rect id="Icons-facebook" width="14.000000" height="14.000000" transform="translate(5.000000 5.000000)"
              fill="#currentColor" fill-opacity="0"/>
        <rect id="Icons-facebook" width="14.000000" height="14.000000" transform="translate(5.000000 5.000000)"
              fill="currentColor" fill-opacity="0"/>
        <rect id="Icons-facebook" width="14.000000" height="14.000000" transform="translate(5.000000 5.000000)"
              fill="#currentColor" fill-opacity="0"/>
        <g clip-path="url(#clip1_58)">
            <path id="Vector"
                  d="M13.16 12.87L14.62 12.87L15.2 10.54L13.16 10.54L13.16 9.37C13.16 8.77 13.16 8.2 14.33 8.2L15.2 8.2L15.2 6.24C15.01 6.22 14.3 6.16 13.54 6.16C11.95 6.16 10.83 7.13 10.83 8.9L10.83 10.54L9.08 10.54L9.08 12.87L10.83 12.87L10.83 17.83L13.16 17.83L13.16 12.87Z"
                  fill="#2B2B2B" fill-opacity="1" fill-rule="nonzero"/>
        </g>
    </g>
    <g id="SidebarIconInstagram">
        <defs>
            <clipPath id="clip1_65">
                <rect id="Icons-instagram" width="14.000000" height="14.000000" transform="translate(5.000000 5.000000)"
                      fill="currentColor" fill-opacity="0"/>
            </clipPath>
        </defs>
        <circle id="Ellipse 9" cx="12.000000" cy="12.000000" r="12.000000" fill="currentColor" fill-opacity="1"/>
        <rect id="Icons-instagram" width="14.000000" height="14.000000" transform="translate(5.000000 5.000000)"
              fill="currentColor" fill-opacity="0"/>
        <rect id="Icons-instagram" width="14.000000" height="14.000000" transform="translate(5.000000 5.000000)"
              fill="currentColor" fill-opacity="0"/>
        <rect id="Icons-instagram" width="14.000000" height="14.000000" transform="translate(5.000000 5.000000)"
              fill="#FFFFFF" fill-opacity="0"/>
        <g clip-path="url(#clip1_65)">
            <path id="Vector"
                  d="M12 6.16C13.58 6.16 13.78 6.17 14.4 6.2C15.02 6.23 15.44 6.32 15.82 6.47C16.2 6.62 16.53 6.82 16.85 7.14C17.15 7.43 17.38 7.78 17.52 8.17C17.67 8.55 17.76 8.97 17.79 9.59C17.82 10.21 17.83 10.41 17.83 12C17.83 13.58 17.82 13.78 17.79 14.4C17.76 15.02 17.67 15.44 17.52 15.82C17.38 16.21 17.15 16.56 16.85 16.85C16.56 17.15 16.21 17.38 15.82 17.52C15.44 17.67 15.02 17.76 14.4 17.79C13.78 17.82 13.58 17.83 12 17.83C10.41 17.83 10.21 17.82 9.59 17.79C8.97 17.76 8.55 17.67 8.17 17.52C7.78 17.38 7.43 17.15 7.14 16.85C6.84 16.56 6.61 16.2 6.47 15.82C6.32 15.44 6.23 15.02 6.2 14.4C6.17 13.78 6.16 13.58 6.16 12C6.16 10.41 6.17 10.21 6.2 9.59C6.23 8.97 6.32 8.55 6.47 8.17C6.61 7.78 6.84 7.43 7.14 7.14C7.43 6.84 7.78 6.61 8.17 6.47C8.55 6.32 8.97 6.23 9.59 6.2C10.21 6.17 10.41 6.16 12 6.16ZM12 9.08C11.22 9.08 10.48 9.39 9.93 9.93C9.39 10.48 9.08 11.22 9.08 12C9.08 12.77 9.39 13.51 9.93 14.06C10.48 14.6 11.22 14.91 12 14.91C12.77 14.91 13.51 14.6 14.06 14.06C14.6 13.51 14.91 12.77 14.91 12C14.91 11.22 14.6 10.48 14.06 9.93C13.51 9.39 12.77 9.08 12 9.08ZM15.79 8.93C15.79 8.74 15.71 8.55 15.57 8.42C15.44 8.28 15.25 8.2 15.06 8.2C14.86 8.2 14.68 8.28 14.54 8.42C14.41 8.55 14.33 8.74 14.33 8.93C14.33 9.13 14.41 9.31 14.54 9.45C14.68 9.58 14.86 9.66 15.06 9.66C15.25 9.66 15.44 9.58 15.57 9.45C15.71 9.31 15.79 9.13 15.79 8.93ZM12 10.25C12.46 10.25 12.9 10.43 13.23 10.76C13.56 11.09 13.75 11.53 13.75 12C13.75 12.46 13.56 12.9 13.23 13.23C12.9 13.56 12.46 13.75 12 13.75C11.53 13.75 11.09 13.56 10.76 13.23C10.43 12.9 10.25 12.46 10.25 12C10.25 11.53 10.43 11.09 10.76 10.76C11.09 10.43 11.53 10.25 12 10.25Z"
                  fill="#2B2B2B" fill-opacity="1" fill-rule="nonzero"/>
        </g>
    </g>
    <g id="SidebarIconTwitter">
        <defs>
            <clipPath id="clip1_72">
                <rect id="Icons-twitter" width="14.000000" height="14.000000" transform="translate(5.000000 5.000000)"
                      fill="currentColor" fill-opacity="0"/>
            </clipPath>
        </defs>
        <circle id="Ellipse 9" cx="12.000000" cy="12.000000" r="12.000000" fill="currentColor" fill-opacity="1"/>
        <rect id="Icons-twitter" width="14.000000" height="14.000000" transform="translate(5.000000 5.000000)"
              fill="currentColor" fill-opacity="0"/>
        <rect id="Icons-twitter" width="14.000000" height="14.000000" transform="translate(5.000000 5.000000)"
              fill="currentColor" fill-opacity="0"/>
        <rect id="Icons-twitter" width="14.000000" height="14.000000" transform="translate(5.000000 5.000000)"
              fill="currentColor" fill-opacity="0"/>
        <g clip-path="url(#clip1_72)">
            <path id="Vector"
                  d="M17.92 8.29C17.48 8.49 17.01 8.62 16.52 8.68C17.03 8.37 17.41 7.89 17.6 7.33C17.12 7.61 16.59 7.81 16.05 7.92C15.68 7.53 15.19 7.27 14.66 7.18C14.13 7.09 13.59 7.18 13.11 7.44C12.64 7.69 12.26 8.09 12.04 8.58C11.82 9.07 11.77 9.62 11.89 10.15C10.92 10.1 9.97 9.84 9.1 9.41C8.24 8.97 7.47 8.35 6.86 7.6C6.64 7.97 6.53 8.39 6.53 8.82C6.53 9.67 6.96 10.42 7.62 10.85C7.23 10.84 6.85 10.74 6.51 10.55L6.51 10.58C6.51 11.14 6.71 11.69 7.06 12.12C7.42 12.56 7.92 12.86 8.47 12.97C8.11 13.07 7.73 13.08 7.37 13.01C7.52 13.5 7.82 13.92 8.23 14.23C8.64 14.53 9.14 14.7 9.64 14.71C9.14 15.11 8.56 15.4 7.94 15.57C7.32 15.75 6.67 15.8 6.03 15.72C7.15 16.44 8.45 16.82 9.77 16.81C14.26 16.81 16.71 13.1 16.71 9.87C16.71 9.77 16.71 9.66 16.71 9.56C17.18 9.21 17.6 8.79 17.92 8.3L17.92 8.29Z"
                  fill="#2B2B2B" fill-opacity="1" fill-rule="nonzero"/>
        </g>
    </g>
    <g id="SidebarIconLinkedIn">
        <defs>
            <clipPath id="clip1_79">
                <rect id="Icons-linkedin" width="14.000000" height="14.000000" transform="translate(5.000000 5.000000)"
                      fill="currentColor" fill-opacity="0"/>
            </clipPath>
        </defs>
        <circle id="Ellipse 18" cx="12.000000" cy="12.000000" r="12.000000" fill="currentColor"
                fill-opacity="1"/>
        <rect id="Icons-linkedin" width="14.000000" height="14.000000" transform="translate(5.000000 5.000000)"
              fill="currentColor" fill-opacity="0"/>
        <rect id="Icons-linkedin" width="14.000000" height="14.000000" transform="translate(5.000000 5.000000)"
              fill="currentColor" fill-opacity="0"/>
        <rect id="Icons-linkedin" width="14.000000" height="14.000000" transform="translate(5.000000 5.000000)"
              fill="currentColor" fill-opacity="0"/>
        <g clip-path="url(#clip1_79)">
            <path id="Vector"
                  d="M9.04 7.91C9.04 8.22 8.92 8.52 8.7 8.74C8.48 8.96 8.19 9.08 7.88 9.08C7.57 9.08 7.27 8.95 7.05 8.74C6.83 8.52 6.71 8.22 6.71 7.91C6.71 7.6 6.83 7.3 7.05 7.09C7.27 6.87 7.57 6.74 7.88 6.74C8.19 6.74 8.48 6.87 8.7 7.09C8.92 7.31 9.04 7.6 9.04 7.91ZM9.08 9.94L6.75 9.94L6.75 17.25L9.08 17.25L9.08 9.94ZM12.77 9.94L10.44 9.94L10.44 17.25L12.74 17.25L12.74 13.41C12.74 11.28 15.52 11.08 15.52 13.41L15.52 17.25L17.83 17.25L17.83 12.62C17.83 9.02 13.71 9.15 12.74 10.92L12.77 9.94Z"
                  fill="#2B2B2B" fill-opacity="1" fill-rule="nonzero"/>
        </g>
    </g>
    <g id="SidebarIconYoutube">
        <defs>
            <clipPath id="clip1_86">
                <rect id="Icons-Youtube" width="14.000000" height="14.000000" transform="translate(5.000000 5.000000)"
                      fill="currentColor" fill-opacity="0"/>
            </clipPath>
        </defs>
        <circle id="Ellipse 9" cx="12.000000" cy="12.000000" r="12.000000" fill="currentColor" fill-opacity="1"/>
        <rect id="Icons-Youtube" width="14.000000" height="14.000000" transform="translate(5.000000 5.000000)"
              fill="currentColor" fill-opacity="0"/>
        <rect id="Icons-Youtube" width="14.000000" height="14.000000" transform="translate(5.000000 5.000000)"
              fill="currentColor" fill-opacity="0"/>
        <rect id="Icons-Youtube" width="14.000000" height="14.000000" transform="translate(5.000000 5.000000)"
              fill="currentColor" fill-opacity="0"/>
        <g clip-path="url(#clip1_86)">
            <path id="Vector"
                  d="M17.56 8.79C17.83 9.83 17.83 12 17.83 12C17.83 12 17.83 14.16 17.56 15.2C17.41 15.78 16.98 16.23 16.43 16.38C15.43 16.66 12 16.66 12 16.66C12 16.66 8.56 16.66 7.56 16.38C7.01 16.23 6.57 15.78 6.43 15.2C6.16 14.16 6.16 12 6.16 12C6.16 12 6.16 9.83 6.43 8.79C6.58 8.21 7.01 7.76 7.56 7.61C8.56 7.33 12 7.33 12 7.33C12 7.33 15.43 7.33 16.43 7.61C16.98 7.76 17.42 8.21 17.56 8.79ZM10.83 14.04L14.33 12L10.83 9.95L10.83 14.04Z"
                  fill="#2B2B2B" fill-opacity="1" fill-rule="nonzero"/>
        </g>
    </g>
    <g id="SidebarIconDribble">
        <defs>
            <clipPath id="clip1_93">
                <rect id="Icons-dribbble" width="14.000000" height="14.000000" transform="translate(5.000000 5.000000)"
                      fill="currentColor" fill-opacity="0"/>
            </clipPath>
        </defs>
        <circle id="Ellipse 9" cx="12.000000" cy="12.000000" r="12.000000" fill="currentColor" fill-opacity="1"/>
        <rect id="Icons-dribbble" width="14.000000" height="14.000000" transform="translate(5.000000 5.000000)"
              fill="currentColor" fill-opacity="0"/>
        <rect id="Icons-dribbble" width="14.000000" height="14.000000" transform="translate(5.000000 5.000000)"
              fill="currentColor" fill-opacity="0"/>
        <rect id="Icons-dribbble" width="14.000000" height="14.000000" transform="translate(5.000000 5.000000)"
              fill="currentColor" fill-opacity="0"/>
        <g clip-path="url(#clip1_93)">
            <path id="Vector"
                  d="M16.66 11.75C16.61 10.83 16.29 9.94 15.74 9.21C15.57 9.39 15.39 9.56 15.2 9.71C14.62 10.2 13.97 10.59 13.27 10.89C13.37 11.09 13.46 11.29 13.53 11.48L13.53 11.48C13.56 11.53 13.58 11.58 13.6 11.64C14.48 11.54 15.41 11.57 16.31 11.69C16.43 11.71 16.55 11.73 16.66 11.75ZM11.18 7.4C11.75 8.2 12.27 9.03 12.75 9.89C13.46 9.61 14.05 9.25 14.53 8.86C14.69 8.72 14.85 8.58 14.99 8.42C14.15 7.71 13.09 7.33 12 7.33C11.72 7.33 11.45 7.35 11.18 7.4L11.18 7.4ZM7.48 10.83C7.87 10.82 8.27 10.79 8.67 10.75C9.62 10.67 10.57 10.51 11.5 10.28C11.02 9.43 10.49 8.61 9.93 7.81C9.33 8.11 8.8 8.53 8.37 9.05C7.95 9.57 7.64 10.18 7.48 10.83ZM8.37 14.93C8.59 14.6 8.89 14.23 9.29 13.82C10.14 12.96 11.14 12.28 12.29 11.91L12.33 11.89C12.23 11.68 12.14 11.49 12.05 11.31C10.98 11.63 9.85 11.82 8.73 11.92C8.18 11.97 7.69 11.99 7.33 12C7.33 13.07 7.69 14.1 8.37 14.93L8.37 14.93ZM13.75 16.32C13.52 15.19 13.2 14.07 12.8 12.99C11.63 13.41 10.7 14.03 9.98 14.77C9.69 15.07 9.43 15.39 9.21 15.74C10.01 16.34 10.99 16.66 12 16.66C12.6 16.66 13.19 16.55 13.75 16.32L13.75 16.32ZM14.84 15.69C15.75 14.99 16.37 13.98 16.58 12.85C16.38 12.8 16.13 12.75 15.86 12.71C15.24 12.63 14.62 12.62 14 12.7C14.35 13.67 14.63 14.68 14.84 15.69L14.84 15.69ZM12 17.83C8.77 17.83 6.16 15.22 6.16 12C6.16 8.77 8.77 6.16 12 6.16C15.22 6.16 17.83 8.77 17.83 12C17.83 15.22 15.22 17.83 12 17.83Z"
                  fill="#2B2B2B" fill-opacity="1" fill-rule="nonzero"/>
        </g>
    </g>
    <g id="squareSidebar">
        <rect fill="fill" id="Rectangle 22" x="0.500000" y="0.500000" width="9.000000" height="9.000000"
              stroke="currentColor" stroke-opacity="1" stroke-width="1"/>
        <rect fill="fill" id="Rectangle 23" x="5.500000" y="5.500000" width="9.000000" height="9.000000"
              stroke="currentColor" stroke-opacity="1" stroke-width="1"/>
    </g>
    <g id="SidebarDownload">
        <defs>
            <clipPath id="clip1_226">
                <rect id="Frame" width="14.000000" height="16.000000" transform="translate(0.000000 -0.714355)"
                      fill="#FFFFFF" fill-opacity="0"/>
            </clipPath>
        </defs>
        <rect id="Frame" width="14.000000" height="16.000000" transform="translate(0.000000 -0.714355)" fill="#FFFFFF"
              fill-opacity="0"/>
        <g clip-path="url(#clip1_226)">
            <path id="Vector"
                  d="M2.33 11.95L11.66 11.95L11.66 7.28L12.83 7.28L12.83 12.61C12.83 12.79 12.77 12.96 12.66 13.09C12.55 13.21 12.4 13.28 12.25 13.28L1.75 13.28C1.59 13.28 1.44 13.21 1.33 13.09C1.22 12.96 1.16 12.79 1.16 12.61L1.16 7.28L2.33 7.28L2.33 11.95ZM8.16 5.28L11.08 5.28L7 9.95L2.91 5.28L5.83 5.28L5.83 1.28L8.16 1.28L8.16 5.28Z"
                  fill="currentColor" fill-opacity="1" fill-rule="nonzero"/>
        </g>
    </g>
    <g id="navBarPortfolio">
        <defs>
            <clipPath id="clip1_271">
                <rect id="Icons/Portfolio" width="18.000000" height="18.000000" transform="translate(11 11)" fill="white" fill-opacity="0"/>
            </clipPath>
        </defs>
        <circle id="Ellipse 12" cx="20.000000" cy="20.000000" r="20.000000" fill="" fill-opacity="1"/>
        <rect id="Icons/Portfolio" width="18.000000" height="18.000000" transform="translate(11 11)" fill="#FFFFFF" fill-opacity="0"/>
        <rect id="Icons/Portfolio" width="18.000000" height="18.000000" transform="translate(11 11)" fill="#FFFFFF" fill-opacity="0"/>
        <rect id="Icons/Portfolio" width="18.000000" height="18.000000" transform="translate(11 11)" fill="#FFFFFF" fill-opacity="0"/>
        <rect id="Icons/Portfolio" width="18.000000" height="18.000000" transform="translate(11 11)" fill="#727272" fill-opacity="0"/>
        <g clip-path="url(#clip1_271)">
            <path id="Vector" d="M17.75 20.75L17.75 23L22.25 23L22.25 20.75L27.5 20.75L27.5 26C27.5 26.19 27.42 26.38 27.28 26.53C27.13 26.67 26.94 26.75 26.75 26.75L13.25 26.75C13.05 26.75 12.86 26.67 12.71 26.53C12.57 26.38 12.5 26.19 12.5 26L12.5 20.75L17.75 20.75ZM19.25 19.25L20.75 19.25L20.75 21.5L19.25 21.5L19.25 19.25ZM16.25 14.75L16.25 12.5C16.25 12.3 16.32 12.11 16.46 11.96C16.61 11.82 16.8 11.75 17 11.75L23 11.75C23.19 11.75 23.38 11.82 23.53 11.96C23.67 12.11 23.75 12.3 23.75 12.5L23.75 14.75L26.75 14.75C26.94 14.75 27.13 14.82 27.28 14.96C27.42 15.11 27.5 15.3 27.5 15.5L27.5 19.25L22.25 19.25L22.25 17.75L17.75 17.75L17.75 19.25L12.5 19.25L12.5 15.5C12.5 15.3 12.57 15.11 12.71 14.96C12.86 14.82 13.05 14.75 13.25 14.75L16.25 14.75ZM17.75 13.25L17.75 14.75L22.25 14.75L22.25 13.25L17.75 13.25Z" fill="#2B2B2B" fill-opacity="1" fill-rule="nonzero"/>
        </g>
    </g>
    <g id="navBarBlog">
        <defs>
            <clipPath id="clip1_279">
                <rect id="Icons/Blog" width="18.000000" height="18.000000" transform="translate(11 11)" fill="white" fill-opacity="0"/>
            </clipPath>
        </defs>
        <circle id="Ellipse 11" cx="20.000000" cy="20.000000" r="20.000000" fill="" fill-opacity="1"/>
        <rect id="Icons/Blog" width="18.000000" height="18.000000" transform="translate(11 11)" fill="#FFFFFF" fill-opacity="0"/>
        <rect id="Icons/Blog" width="18.000000" height="18.000000" transform="translate(11 11)" fill="#FFFFFF" fill-opacity="0"/>
        <rect id="Icons/Blog" width="18.000000" height="18.000000" transform="translate(11 11)" fill="#FFFFFF" fill-opacity="0"/>
        <rect id="Icons/Blog" width="18.000000" height="18.000000" transform="translate(11 11)" fill="#FFFFFF" fill-opacity="0"/>
        <g clip-path="url(#clip1_279)">
            <path id="Vector" d="M26.75 12.5C15.5 12.5 14 23 13.25 27.5L14.74 27.5C15.24 25 16.49 23.62 18.5 23.37C21.5 23 23.75 20.37 24.5 18.12L23.37 17.37L24.12 16.62C24.87 15.87 25.62 14.75 26.75 12.5Z" fill="#2B2B2B" fill-opacity="1" fill-rule="nonzero"/>
        </g>
    </g>
    <g id="navBarEducation">
        <defs>
            <clipPath id="clip1_264">
                <rect id="Icons/cv" width="18.000000" height="18.000000" transform="translate(11 11)" fill="white" fill-opacity="0"/>
            </clipPath>
        </defs>
        <circle id="Ellipse 11" cx="20.000000" cy="20.000000" r="20.000000" fill="" fill-opacity="1"/>
        <rect id="Icons/cv" width="18.000000" height="18.000000" transform="translate(11 11)" fill="#FFFFFF" fill-opacity="0"/>
        <rect id="Icons/cv" width="18.000000" height="18.000000" transform="translate(11 11)" fill="#FFFFFF" fill-opacity="0"/>
        <rect id="Icons/cv" width="18.000000" height="18.000000" transform="translate(11 11)" fill="#FFFFFF" fill-opacity="0"/>
        <g clip-path="url(#clip1_264)">
            <path id="Vector" d="M23.76 22.27L20.25 25.62L16.73 22.27C14.1 22.38 12 24.43 12 26.97L12 27.31C12 28.24 12.79 29 13.76 29L26.73 29C27.7 29 28.5 28.24 28.5 27.31L28.5 26.97C28.5 24.43 26.39 22.38 23.76 22.27ZM12.5 13.8L12.73 13.85L12.73 15.91C12.47 16.06 12.29 16.31 12.29 16.62C12.29 16.92 12.46 17.16 12.7 17.31L12.12 19.5C12.06 19.75 12.2 20 12.4 20L13.94 20C14.15 20 14.29 19.75 14.22 19.5L13.65 17.31C13.89 17.16 14.06 16.92 14.06 16.62C14.06 16.31 13.87 16.06 13.62 15.91L13.62 14.06L16.05 14.62C15.73 15.22 15.53 15.9 15.53 16.62C15.53 19.11 17.64 21.12 20.25 21.12C22.85 21.12 24.96 19.11 24.96 16.62C24.96 15.9 24.76 15.22 24.44 14.62L27.99 13.8C28.66 13.65 28.66 12.85 27.99 12.69L20.98 11.08C20.5 10.97 19.99 10.97 19.52 11.08L12.5 12.69C11.83 12.85 11.83 13.65 12.5 13.8Z" fill="#2B2B2B" fill-opacity="1" fill-rule="nonzero"/>
        </g>
    </g>
    <g id="navBarContrast">
        <defs>
            <clipPath id="clip1_235">
                <rect id="Icons/Contrast" width="30.000000" height="30.000000" fill="white" fill-opacity="0"/>
            </clipPath>
        </defs>
        <rect id="Icons/Contrast" width="30.000000" height="30.000000" fill="#FFFFFF" fill-opacity="0"/>
        <rect id="Icons/Contrast" width="30.000000" height="30.000000" fill="#FFFFFF" fill-opacity="0"/>
        <rect id="Icons/Contrast" width="30.000000" height="30.000000" fill="#FFFFFF" fill-opacity="0"/>
        <rect id="Icons/Contrast" width="30.000000" height="30.000000" fill="#FFFFFF" fill-opacity="0"/>
        <g clip-path="url(#clip1_235)">
            <path id="Vector" d="M15.5 27C8.59 27 3 21.4 3 14.5C3 7.59 8.59 2 15.5 2C22.4 2 28 7.59 28 14.5C28 21.4 22.4 27 15.5 27ZM7.16 20.03C7.98 21.26 9.06 22.29 10.33 23.05C11.6 23.81 13.02 24.28 14.49 24.42C15.96 24.57 17.45 24.38 18.84 23.88C20.23 23.39 21.5 22.59 22.54 21.54C23.59 20.49 24.39 19.23 24.89 17.84C25.38 16.45 25.57 14.96 25.42 13.49C25.28 12.02 24.81 10.6 24.05 9.33C23.29 8.06 22.26 6.98 21.03 6.16C21.57 8.08 21.58 10.11 21.08 12.04C20.57 13.97 19.56 15.73 18.15 17.15C16.74 18.56 14.97 19.57 13.04 20.08C11.11 20.58 9.08 20.56 7.16 20.03Z" fill="currentColor" fill-opacity="1" fill-rule="nonzero"/>
        </g>
    </g>
    <g id="navBarHome">
        <defs>
            <clipPath id="clip1_250">
                <rect id="Icons/Home" width="18.000000" height="18.000000" transform="translate(11 11)" fill="white" fill-opacity="0"/>
            </clipPath>
        </defs>
        <circle id="Ellipse 10" cx="20.000000" cy="20.000000" r="20.000000" fill="" fill-opacity="1"/>
        <rect id="Icons/Home" width="18.000000" height="18.000000" transform="translate(11 11)" fill="#FFFFFF" fill-opacity="0"/>
        <rect id="Icons/Home" width="18.000000" height="18.000000" transform="translate(11 11)" fill="#FFFFFF" fill-opacity="0"/>
        <rect id="Icons/Home" width="18.000000" height="18.000000" transform="translate(11 11)" fill="#FFFFFF" fill-opacity="0"/>
        <rect id="Icons/Home" width="18.000000" height="18.000000" transform="translate(11 11)" fill="#FFFFFF" fill-opacity="0"/>
        <g clip-path="url(#clip1_250)">
            <path id="Vector" d="M25.99 26C25.99 26.19 25.92 26.38 25.78 26.53C25.63 26.67 25.44 26.75 25.24 26.75L14.74 26.75C14.55 26.75 14.36 26.67 14.21 26.53C14.07 26.38 13.99 26.19 13.99 26L13.99 19.25L11.74 19.25L19.49 12.2C19.63 12.08 19.81 12.01 19.99 12.01C20.18 12.01 20.36 12.08 20.5 12.2L28.24 19.25L25.99 19.25L25.99 26Z" fill="#2B2B2B" fill-opacity="1" fill-rule="nonzero"/>
        </g>
    </g>
    <g id="navBarService">
        <defs>
            <clipPath id="clip1_258">
                <rect id="file-code" width="16.500000" height="18.000000" transform="translate(12.000000 11)" fill="currentColor" fill-opacity="0"/>
            </clipPath>
            <clipPath id="clip1_257">
                <rect id="Icons/Services" width="18.000000" height="18.000000" transform="translate(11 11)" fill="white" fill-opacity="0"/>
            </clipPath>
        </defs>
        <circle id="Ellipse 10" cx="20.000000" cy="20.000000" r="20.000000" fill="" fill-opacity="1"/>
        <rect id="Icons/Services" width="18.000000" height="18.000000" transform="translate(11 11)" fill="currentColor" fill-opacity="0"/>
        <rect id="Icons/Services" width="18.000000" height="18.000000" transform="translate(11 11)" fill="currentColor" fill-opacity="0"/>
        <g clip-path="url(#clip1_257)">
            <rect id="file-code" width="16.500000" height="18.000000" transform="translate(12.000000 11)" fill="#000000" fill-opacity="0"/>
            <g clip-path="url(#clip1_258)">
                <path id="Vector" d="M28.5 15.28L28.5 15.5L23 15.5L23 11L23.26 11C23.53 11 23.79 11.08 23.98 11.24L28.19 14.69C28.39 14.84 28.5 15.06 28.5 15.28ZM22.65 16.62C22.08 16.62 21.62 16.24 21.62 15.78L21.62 11L13.03 11C12.46 11 12 11.37 12 11.84L12 28.15C12 28.62 12.46 29 13.03 29L27.46 29C28.03 29 28.5 28.62 28.5 28.15L28.5 16.62L22.65 16.62ZM17.29 25.08C17.27 25.09 17.24 25.11 17.22 25.12C17.19 25.13 17.16 25.13 17.13 25.14C17.1 25.14 17.07 25.13 17.04 25.12C17.01 25.11 16.98 25.1 16.96 25.08L14.17 22.95C14.15 22.93 14.13 22.91 14.12 22.88C14.11 22.86 14.1 22.83 14.1 22.81C14.1 22.78 14.11 22.76 14.12 22.73C14.13 22.71 14.15 22.69 14.17 22.67L16.96 20.53C16.98 20.51 17.01 20.5 17.04 20.49C17.07 20.48 17.1 20.48 17.13 20.48C17.16 20.48 17.19 20.49 17.22 20.5C17.24 20.51 17.27 20.52 17.29 20.54L18.13 21.27C18.15 21.29 18.17 21.31 18.18 21.34C18.19 21.36 18.19 21.39 18.19 21.41C18.19 21.44 18.18 21.46 18.17 21.49C18.16 21.51 18.14 21.53 18.11 21.55L16.36 22.81L18.11 24.07C18.14 24.09 18.16 24.11 18.17 24.13C18.18 24.15 18.19 24.18 18.19 24.2C18.19 24.23 18.19 24.25 18.18 24.28C18.17 24.3 18.15 24.32 18.13 24.34L17.29 25.08ZM19.49 26.85L18.31 26.57C18.25 26.56 18.2 26.52 18.17 26.48C18.15 26.43 18.14 26.38 18.16 26.33L20.8 18.89C20.81 18.85 20.85 18.81 20.91 18.78C20.96 18.76 21.02 18.75 21.08 18.77L22.26 19.05C22.29 19.05 22.32 19.06 22.34 19.08C22.37 19.1 22.39 19.11 22.4 19.14C22.42 19.16 22.43 19.18 22.43 19.21C22.43 19.23 22.43 19.26 22.42 19.28L19.78 26.72C19.77 26.74 19.76 26.77 19.74 26.79C19.72 26.81 19.7 26.82 19.67 26.83C19.64 26.85 19.61 26.85 19.58 26.86C19.55 26.86 19.52 26.86 19.49 26.85ZM26.4 22.95L23.61 25.08C23.59 25.1 23.57 25.11 23.54 25.12C23.51 25.13 23.48 25.14 23.45 25.14C23.42 25.13 23.39 25.13 23.36 25.12C23.33 25.11 23.31 25.09 23.29 25.08L22.45 24.34C22.42 24.32 22.41 24.3 22.4 24.28C22.39 24.25 22.38 24.23 22.38 24.2C22.38 24.18 22.39 24.15 22.41 24.13C22.42 24.11 22.44 24.09 22.46 24.07L24.21 22.81L22.46 21.55C22.44 21.53 22.42 21.51 22.41 21.49C22.39 21.46 22.38 21.44 22.38 21.41C22.38 21.39 22.39 21.36 22.4 21.34C22.41 21.31 22.42 21.29 22.45 21.27L23.29 20.54C23.31 20.52 23.33 20.51 23.36 20.5C23.39 20.49 23.42 20.48 23.45 20.48C23.48 20.48 23.51 20.48 23.54 20.49C23.57 20.5 23.59 20.51 23.61 20.53L26.4 22.67C26.43 22.69 26.44 22.71 26.46 22.73C26.47 22.76 26.48 22.78 26.48 22.81C26.48 22.83 26.47 22.86 26.46 22.88C26.44 22.91 26.43 22.93 26.4 22.95Z" fill="#2B2B2B" fill-opacity="1" fill-rule="nonzero"/>
            </g>
        </g>
    </g>
    <g id="navBarContact">
        <defs>
            <clipPath id="clip1_287">
                <rect id="Icons/Contact" width="18.000000" height="18.000000" transform="translate(11 11)" fill="white" fill-opacity="0"/>
            </clipPath>
        </defs>
        <circle id="Ellipse 14" cx="20.000000" cy="20.000000" r="20.000000" fill-opacity="1"/>
        <rect id="Icons/Contact" width="18.000000" height="18.000000" transform="translate(11 11)" fill="#FFFFFF" fill-opacity="0"/>
        <rect id="Icons/Contact" width="18.000000" height="18.000000" transform="translate(11 11)" fill="#FFFFFF" fill-opacity="0"/>
        <rect id="Icons/Contact" width="18.000000" height="18.000000" transform="translate(11 11)" fill="#FFFFFF" fill-opacity="0"/>
        <rect id="Icons/Contact" width="18.000000" height="18.000000" transform="translate(11 11)" fill="#727272" fill-opacity="0"/>
        <g clip-path="url(#clip1_287)">
            <path id="Vector" d="M15.84 25.25L12.5 27.87L12.5 14C12.5 13.8 12.57 13.61 12.71 13.46C12.86 13.32 13.05 13.25 13.25 13.25L26.75 13.25C26.94 13.25 27.13 13.32 27.28 13.46C27.42 13.61 27.5 13.8 27.5 14L27.5 24.5C27.5 24.69 27.42 24.88 27.28 25.03C27.13 25.17 26.94 25.25 26.75 25.25L15.84 25.25Z" fill="#2B2B2B" fill-opacity="1" fill-rule="nonzero"/>
        </g>
    </g>
    <g id="OverlayPortfolio">
        <defs/>
        <path id="Vector" d="M13 13L13 0L17.3334 0L17.3334 13L30.3334 13L30.3334 17.3333L17.3334 17.3333L17.3334 30.3333L13 30.3333L13 17.3333L0 17.3333L0 13L13 13Z" fill="#2B2B2B" fill-opacity="1" fill-rule="nonzero"/>
    </g>
</svg>